<svg xmlns="http://www.w3.org/2000/svg" width="1200" height="800" viewBox="0 0 1200 800" preserveAspectRatio="xMidYMid slice">
  <defs>
    <radialGradient id="glow" cx="50%" cy="18%" r="75%">
      <stop offset="0%" stop-color="#2a1420"/>
      <stop offset="45%" stop-color="#130a12"/>
      <stop offset="100%" stop-color="#06060a"/>
    </radialGradient>
    <linearGradient id="floor" x1="0" y1="0" x2="0" y2="1">
      <stop offset="0%" stop-color="#000000" stop-opacity="0"/>
      <stop offset="100%" stop-color="#000000" stop-opacity="0.85"/>
    </linearGradient>
    <filter id="smoke" x="-20%" y="-20%" width="140%" height="140%">
      <feTurbulence type="fractalNoise" baseFrequency="0.012 0.02" numOctaves="4" seed="7" result="n"/>
      <feColorMatrix in="n" type="matrix" values="0 0 0 0 0.55  0 0 0 0 0.18  0 0 0 0 0.24  0 0 0 0.9 0"/>
      <feComponentTransfer><feFuncA type="linear" slope="0.35"/></feComponentTransfer>
    </filter>
    <filter id="grain">
      <feTurbulence type="fractalNoise" baseFrequency="0.9" numOctaves="2" seed="3" result="g"/>
      <feColorMatrix in="g" type="matrix" values="0 0 0 0 1  0 0 0 0 1  0 0 0 0 1  0 0 0 0.04 0"/>
    </filter>
  </defs>

  <rect width="1200" height="800" fill="url(#glow)"/>

  <!-- drifting smoke -->
  <rect width="1200" height="800" filter="url(#smoke)" opacity="0.5"/>

  <!-- cathedral arches -->
  <g fill="none" stroke="#3a2030" stroke-width="2" opacity="0.35">
    <path d="M300 800 L300 340 Q600 120 900 340 L900 800"/>
    <path d="M360 800 L360 380 Q600 200 840 380 L840 800"/>
    <path d="M180 800 L180 300 Q600 60 1020 300 L1020 800"/>
  </g>
  <g fill="none" stroke="#5a2a38" stroke-width="1" opacity="0.25">
    <line x1="600" y1="120" x2="600" y2="800"/>
    <line x1="450" y1="260" x2="450" y2="800"/>
    <line x1="750" y1="260" x2="750" y2="800"/>
  </g>

  <!-- floor fade + grain -->
  <rect width="1200" height="800" fill="url(#floor)"/>
  <rect width="1200" height="800" filter="url(#grain)"/>
</svg>
